# xmcd
#
# Track frame offsets:
# 183
# 15858
# 35008
# 48420
# 59245
# 78170
# 91833
# 111508
# 127295
# 143595
# 159320
# 176595
# 190708
# 205908
# 218133
# 232108
# 245258
#
# Disc length: 3428 seconds
#
#
# Revision: 1
# Processed by: cddbd v1.4PL0 Copyright (c) Steve Scherf et al.
# Submitted via: FreeRIP 2.53 
#
DISCID=eb0d6211
DTITLE=Jack Jersey - Close to you
DYEAR=1988
DGENRE=
TTITLE0=Lady
TTITLE1=Sri Lanka My Shangrila
TTITLE2=Give me love
TTITLE3=In the still of the night
TTITLE4=Silvery moon
TTITLE5=Gone girl
TTITLE6=Juanita - Peaches on a tree - One is one
TTITLE7=I'm Calling
TTITLE8=I can stand tomorrow
TTITLE9=Blue brown eyes lady
TTITLE10=Close to you
TTITLE11=Ole Sio
TTITLE12=Papa was a poor man
TTITLE13=I wonder
TTITLE14=Woman
TTITLE15=Dont break this heart
TTITLE16=She was dynamite
EXTD=
EXTT0=
EXTT1=
EXTT2=
EXTT3=
EXTT4=
EXTT5=
EXTT6=
EXTT7=
EXTT8=
EXTT9=
EXTT10=
EXTT11=
EXTT12=
EXTT13=
EXTT14=
EXTT15=
EXTT16=
PLAYORDER=
